<svg width="242" height="190" viewBox="0 0 242 190" fill="none" xmlns="http://www.w3.org/2000/svg">
<path d="M214.501 100.845V94.118C214.501 92.8351 213.992 91.6048 213.085 90.6976C212.177 89.7905 210.947 89.2809 209.664 89.2809H192.591C191.956 89.2809 191.327 89.1558 190.74 88.9127C190.153 88.6696 189.62 88.3133 189.171 87.8641C188.721 87.415 188.365 86.8817 188.122 86.2949C187.879 85.708 187.754 85.079 187.754 84.4438V77.7163C187.754 76.4334 188.264 75.2031 189.171 74.296C190.078 73.3888 191.308 72.8792 192.591 72.8792H193.13C193.765 72.8792 194.394 72.7541 194.981 72.511C195.568 72.2679 196.101 71.9116 196.55 71.4625C197 71.0133 197.356 70.4801 197.599 69.8932C197.842 69.3063 197.967 68.6774 197.967 68.0421V61.3146C197.967 60.6794 197.842 60.0504 197.599 59.4635C197.356 58.8767 197 58.3434 196.55 57.8943C196.101 57.4451 195.568 57.0888 194.981 56.8457C194.394 56.6027 193.765 56.4775 193.13 56.4775H55.5902C54.3074 56.4775 53.077 56.9872 52.1699 57.8943C51.2628 58.8014 50.7532 60.0317 50.7532 61.3146V68.0421C50.7532 69.325 51.2628 70.5553 52.1699 71.4625C53.077 72.3696 54.3074 72.8792 55.5902 72.8792C56.2255 72.8792 56.8544 73.0043 57.4413 73.2474C58.0282 73.4905 58.5614 73.8468 59.0106 74.296C59.4597 74.7451 59.816 75.2784 60.0591 75.8652C60.3022 76.4521 60.4273 77.0811 60.4273 77.7163V84.4438C60.4273 85.079 60.3022 85.708 60.0591 86.2949C59.816 86.8817 59.4597 87.415 59.0106 87.8641C58.5614 88.3133 58.0282 88.6696 57.4413 88.9127C56.8544 89.1558 56.2255 89.2809 55.5902 89.2809H36.8848C36.2496 89.2809 35.6206 89.406 35.0338 89.6491C34.4469 89.8922 33.9137 90.2485 33.4645 90.6976C33.0153 91.1468 32.659 91.68 32.4159 92.2669C32.1729 92.8538 32.0477 93.4827 32.0477 94.118V100.845C32.0477 101.481 32.1729 102.11 32.4159 102.697C32.659 103.283 33.0153 103.817 33.4645 104.266C33.9137 104.715 34.4469 105.071 35.0338 105.314C35.6206 105.557 36.2496 105.683 36.8848 105.683H44.2245C45.5074 105.683 46.7377 106.192 47.6449 107.099C48.552 108.006 49.0616 109.237 49.0616 110.52V117.247C49.0616 118.53 48.552 119.76 47.6449 120.668C46.7377 121.575 45.5074 122.084 44.2245 122.084H44.2068C42.9239 122.084 41.6936 122.594 40.7865 123.501C39.8793 124.408 39.3697 125.638 39.3697 126.921V133.649C39.3697 134.284 39.4948 134.913 39.7379 135.5C39.981 136.087 40.3373 136.62 40.7865 137.069C41.2356 137.518 41.7689 137.875 42.3557 138.118C42.9426 138.361 43.5716 138.486 44.2068 138.486H45.2687C45.9039 138.486 46.5329 138.611 47.1198 138.854C47.7066 139.097 48.2399 139.453 48.689 139.903C49.1382 140.352 49.4945 140.885 49.7376 141.472C49.9807 142.059 50.1058 142.688 50.1058 143.323V150.051C50.1058 151.333 49.5962 152.564 48.689 153.471C47.7819 154.378 46.5516 154.888 45.2687 154.888H27.841C27.2058 154.888 26.5768 155.013 25.9899 155.256C25.4031 155.499 24.8698 155.855 24.4207 156.304C23.9715 156.754 23.6152 157.287 23.3721 157.874C23.129 158.46 23.0039 159.089 23.0039 159.725V166.452C23.0039 167.087 23.129 167.716 23.3721 168.303C23.6152 168.89 23.9715 169.423 24.4207 169.873C24.8698 170.322 25.4031 170.678 25.9899 170.921C26.5768 171.164 27.2058 171.289 27.841 171.289H195.727C196.362 171.289 196.991 171.164 197.578 170.921C198.165 170.678 198.698 170.322 199.147 169.873C199.596 169.423 199.953 168.89 200.196 168.303C200.439 167.716 200.564 167.087 200.564 166.452V159.725C200.564 159.089 200.439 158.46 200.196 157.874C199.953 157.287 199.596 156.754 199.147 156.304C198.698 155.855 198.165 155.499 197.578 155.256C196.991 155.013 196.362 154.888 195.727 154.888H191.533C190.898 154.888 190.269 154.762 189.682 154.519C189.095 154.276 188.562 153.92 188.113 153.471C187.663 153.022 187.307 152.488 187.064 151.902C186.821 151.315 186.696 150.686 186.696 150.051V143.323C186.696 142.688 186.821 142.059 187.064 141.472C187.307 140.885 187.663 140.352 188.113 139.903C188.562 139.453 189.095 139.097 189.682 138.854C190.269 138.611 190.898 138.486 191.533 138.486H201.422C202.705 138.486 203.935 137.976 204.842 137.069C205.749 136.162 206.259 134.932 206.259 133.649V126.921C206.259 125.638 205.749 124.408 204.842 123.501C203.935 122.594 202.705 122.084 201.422 122.084H198.422C197.139 122.084 195.909 121.575 195.002 120.668C194.095 119.76 193.585 118.53 193.585 117.247V110.52C193.585 109.237 194.095 108.006 195.002 107.099C195.909 106.192 197.139 105.683 198.422 105.683H209.664C210.947 105.683 212.177 105.173 213.085 104.266C213.992 103.359 214.501 102.128 214.501 100.845Z" fill="white" fill-opacity="0.37"/>
<path d="M120.846 166.056C156.307 166.056 185.054 137.31 185.054 101.849C185.054 66.3875 156.307 37.6406 120.846 37.6406C85.3846 37.6406 56.6377 66.3875 56.6377 101.849C56.6377 137.31 85.3846 166.056 120.846 166.056Z" fill="white"/>
<path d="M144.682 79.8896L179.616 98.5513V152.968L144.682 134.307V79.8896Z" fill="black"/>
<path d="M144.682 79.8896L63.0938 98.5513V152.968L144.682 134.307V79.8896Z" fill="#EEB71D"/>
<path d="M130.685 62.666L49.0977 81.3277L63.0936 98.4216L144.682 79.76L130.685 62.666Z" fill="#F9C532"/>
<path d="M98.028 171.5L63.0938 152.839V98.4219L98.028 117.083V171.5Z" fill="#F9C532"/>
<path d="M84.0319 129.512L49.0977 110.85L63.0936 98.4219L98.0278 117.083L84.0319 129.512Z" fill="#FCCE4C"/>
<path d="M179.616 98.4213L144.682 79.7597L158.678 67.3311L193.612 85.9927L179.616 98.4213Z" fill="#EEB71D"/>
<path d="M98.0273 171.5L179.615 152.839V98.4219L98.0273 117.083V171.5Z" fill="#EEB71D"/>
<path d="M98.0273 117.344L179.615 98.6826L193.612 113.78L112.024 132.441L98.0273 117.344Z" fill="#F9C532"/>
<path d="M43.1992 33.9249C45.0444 33.6576 46.9188 33.6605 48.7632 33.9336C50.625 34.1839 52.4445 34.684 54.1727 35.4205C55.9096 36.1596 57.5139 37.1777 58.9221 38.4346C60.3219 39.68 61.4719 41.1805 62.3108 42.8558C61.1877 41.4162 59.8929 40.1191 58.4553 38.9933C57.0246 37.8965 55.4617 36.9839 53.8034 36.2768C52.9779 35.912 52.1306 35.5986 51.2664 35.3384C50.4053 35.0614 49.5243 34.8476 48.6378 34.648C46.8466 34.2653 45.0282 34.0235 43.1992 33.9249Z" fill="#EEB71D"/>
<path d="M157.129 42.3177C157.332 40.4643 157.804 38.6504 158.53 36.9331C159.239 35.1932 160.179 33.5568 161.324 32.0681C162.475 30.5716 163.862 29.2733 165.432 28.2246C166.988 27.1813 168.728 26.4436 170.56 26.0508C168.885 26.7778 167.306 27.7066 165.856 28.8164C164.436 29.9269 163.161 31.2116 162.061 32.6401C161.501 33.348 160.986 34.0898 160.517 34.8613C160.033 35.6256 159.606 36.4251 159.191 37.2334C158.372 38.8717 157.682 40.5717 157.129 42.3177Z" fill="#127FAF"/>
<path d="M112.107 37.4696C111.652 35.6613 111.463 33.7965 111.546 31.9339C111.605 30.0562 111.916 28.1951 112.472 26.4007C113.03 24.5974 113.879 22.8974 114.985 21.368C116.081 19.8482 117.456 18.5508 119.036 17.5449C117.719 18.8094 116.561 20.23 115.589 21.7752C114.644 23.3105 113.896 24.9585 113.362 26.6804C113.083 27.5389 112.858 28.4138 112.688 29.3001C112.5 30.185 112.378 31.0833 112.27 31.9856C112.072 33.8065 112.018 35.6401 112.107 37.4696Z" fill="#D6A828"/>
<path d="M182.729 59.534C182.921 57.6794 183.381 55.8625 184.097 54.1406C184.794 52.3962 185.723 50.7539 186.859 49.2579C188 47.7541 189.379 46.447 190.942 45.3882C192.491 44.335 194.227 43.5862 196.057 43.1816C194.386 43.9194 192.813 44.8582 191.37 45.9773C189.957 47.0969 188.69 48.3896 187.6 49.8251C187.044 50.5366 186.533 51.2817 186.07 52.0562C185.591 52.8236 185.169 53.6257 184.759 54.4367C183.95 56.0802 183.272 57.7845 182.729 59.534Z" fill="#EEB71D"/>
<path d="M76.5146 67.8828C76.7181 67.9676 76.8854 68.1211 76.9872 68.3165C77.0826 68.5158 77.1451 68.7291 77.1723 68.9484C77.2363 69.3792 77.2273 69.8071 77.2649 70.2117C77.2483 70.5608 77.3621 70.9036 77.5842 71.1734C77.7019 71.2523 77.8424 71.29 77.9838 71.2807C78.1252 71.2714 78.2595 71.2156 78.3659 71.1219C78.6918 70.8937 79.0036 70.6462 79.2998 70.3805C79.6597 70.0363 80.1031 69.7918 80.5863 69.6712C80.9071 69.6196 81.2352 69.6973 81.4989 69.8871C81.6324 69.9795 81.7475 70.0959 81.8384 70.2303C81.9144 70.3556 81.9743 70.4898 82.0169 70.63C82.125 71.0868 82.1628 71.5575 82.1289 72.0257C82.0951 72.3934 82.113 72.7641 82.1819 73.1268C82.2009 73.2362 82.2619 73.3339 82.3518 73.399C82.4303 73.4587 82.5292 73.4849 82.6269 73.4718C82.9602 73.3854 83.2685 73.2215 83.5266 72.9935C83.8685 72.7139 84.2355 72.4665 84.623 72.2546C84.8591 72.127 85.1238 72.0619 85.3921 72.0653C85.6868 72.0742 85.9665 72.1978 86.1715 72.4098C86.3474 72.6119 86.461 72.8606 86.4985 73.1259C86.5303 73.351 86.5385 73.5788 86.5231 73.8057C86.4934 74.2394 86.4309 74.65 86.4171 75.0569C86.3847 75.2565 86.4047 75.4612 86.4751 75.6509C86.5455 75.8405 86.6639 76.0086 86.8188 76.1388C86.6152 76.0543 86.4477 75.901 86.3454 75.7057C86.2496 75.5066 86.1866 75.2932 86.159 75.0739C86.0946 74.643 86.103 74.2151 86.065 73.8105C86.0817 73.4615 85.9679 73.1188 85.7459 72.849C85.6289 72.7695 85.4889 72.731 85.3478 72.7397C85.2066 72.7483 85.0724 72.8036 84.966 72.8968C84.6401 73.1243 84.3282 73.3712 84.0319 73.6362C83.6724 73.9801 83.2299 74.225 82.7475 74.347C82.4272 74.4001 82.099 74.3243 81.8343 74.1363C81.6999 74.0451 81.584 73.9293 81.4926 73.7951C81.415 73.6703 81.3538 73.536 81.3106 73.3955C81.2007 72.9384 81.1624 72.4669 81.1969 71.998C81.2313 71.6297 81.2141 71.2584 81.1456 70.8949C81.1288 70.8341 81.1056 70.7752 81.0765 70.7193C81.0386 70.6896 81.0244 70.6365 80.9766 70.62C80.8987 70.5601 80.8004 70.533 80.7028 70.5444C80.3698 70.6302 80.0618 70.7936 79.8041 71.0214C79.4623 71.3006 79.0958 71.5481 78.7091 71.7609C78.4738 71.8886 78.21 71.9548 77.9423 71.9532C77.6475 71.9456 77.3674 71.823 77.1618 71.6116C76.9854 71.4099 76.8715 71.1613 76.8339 70.8961C76.8017 70.671 76.7935 70.4432 76.8093 70.2164C76.8391 69.7828 76.9014 69.3721 76.9157 68.9651C76.9483 68.7654 76.9285 68.5607 76.8582 68.371C76.7879 68.1812 76.6695 68.013 76.5146 67.8828Z" fill="#127FAF"/>
<path d="M121.279 47.3027C121.343 47.5191 121.333 47.7507 121.25 47.9606C121.16 48.1695 121.036 48.3613 120.881 48.5277C120.585 48.8636 120.24 49.1375 119.947 49.4336C119.66 49.654 119.467 49.9745 119.406 50.331C119.417 50.481 119.476 50.6237 119.573 50.7387C119.67 50.8537 119.8 50.9352 119.946 50.9715C120.334 51.0984 120.73 51.2 121.131 51.2756C121.636 51.3557 122.111 51.5698 122.506 51.8956C122.735 52.1227 122.872 52.4259 122.893 52.7478C122.907 52.9085 122.892 53.0704 122.849 53.2259C122.804 53.3684 122.742 53.5046 122.662 53.6312C122.378 54.0225 122.033 54.3657 121.641 54.6478C121.329 54.8626 121.051 55.122 120.814 55.4178C120.741 55.5134 120.705 55.6325 120.713 55.7528C120.718 55.8644 120.762 55.9706 120.838 56.0528C121.113 56.2759 121.438 56.4283 121.785 56.4967C122.228 56.6006 122.659 56.7473 123.073 56.9345C123.189 56.994 123.3 57.0622 123.405 57.1385C123.517 57.2278 123.615 57.333 123.696 57.4507C123.864 57.6919 123.94 57.9851 123.911 58.2775C123.87 58.5468 123.753 58.7988 123.575 59.0046C123.421 59.1815 123.249 59.3406 123.06 59.4787C122.699 59.7433 122.334 59.9643 122.007 60.2241C121.83 60.3342 121.685 60.4875 121.584 60.6695C121.483 60.8515 121.43 61.0562 121.431 61.2642C121.366 61.0479 121.376 60.8162 121.459 60.6061C121.548 60.3971 121.673 60.2049 121.827 60.0382C122.123 59.7021 122.468 59.4278 122.761 59.1314C123.048 58.9113 123.24 58.5909 123.301 58.2345C123.29 58.0846 123.233 57.942 123.136 57.8269C123.04 57.7118 122.909 57.6301 122.764 57.5937C122.376 57.4663 121.981 57.3642 121.581 57.2882C121.075 57.2081 120.601 56.9947 120.206 56.6699C120.037 56.4978 119.917 56.2848 119.855 56.0519C119.794 55.819 119.795 55.5741 119.857 55.3414C119.9 55.1982 119.963 55.0612 120.042 54.934C120.325 54.5413 120.67 54.1973 121.063 53.9154C121.376 53.7008 121.655 53.4413 121.892 53.1454C121.966 53.05 122.003 52.9306 121.995 52.8098C121.991 52.6984 121.948 52.592 121.873 52.5089C121.599 52.2858 121.274 52.1334 120.927 52.0652C120.485 51.9611 120.054 51.8149 119.64 51.6287C119.524 51.5697 119.413 51.5019 119.308 51.4257C119.195 51.3371 119.097 51.2325 119.015 51.1152C118.847 50.8746 118.77 50.5816 118.799 50.2892C118.84 50.0201 118.956 49.768 119.134 49.5623C119.287 49.3851 119.46 49.226 119.649 49.0881C120.01 48.8237 120.375 48.6025 120.702 48.3429C120.879 48.2328 121.024 48.0795 121.125 47.8975C121.226 47.7155 121.279 47.5108 121.279 47.3027Z" fill="#EEB71D"/>
<path d="M143.087 64.892C143.173 64.6558 143.318 64.446 143.509 64.2829C143.709 64.1227 143.938 64.0015 144.182 63.9256C144.665 63.769 145.161 63.7158 145.615 63.6019C146.033 63.5429 146.412 63.3256 146.673 62.995C146.774 62.8346 146.833 62.6517 146.845 62.4629C146.857 62.274 146.823 62.0851 146.744 61.913C146.531 61.5063 146.285 61.1182 146.007 60.7528C145.654 60.3011 145.439 59.7572 145.387 59.1863C145.393 58.8635 145.481 58.5475 145.644 58.2688C145.807 57.9901 146.039 57.758 146.318 57.5949C146.812 57.3601 147.346 57.2192 147.892 57.1796C148.318 57.1572 148.737 57.061 149.13 56.8954C149.271 56.8104 149.39 56.6926 149.476 56.5519C149.561 56.4112 149.612 56.2518 149.623 56.0874C149.584 55.6839 149.438 55.2982 149.198 54.9714C148.903 54.5492 148.657 54.0947 148.465 53.6167C148.367 53.3341 148.338 53.0322 148.38 52.736C148.425 52.4397 148.546 52.1599 148.729 51.9228C149.11 51.508 149.638 51.2584 150.2 51.2275C150.704 51.1744 151.185 51.1769 151.649 51.103C151.884 51.0783 152.11 51.0009 152.311 50.8767C152.511 50.7526 152.681 50.5847 152.808 50.3857C152.722 50.622 152.577 50.832 152.386 50.9953C152.186 51.1558 151.958 51.2774 151.713 51.3538C151.231 51.5107 150.735 51.5645 150.28 51.6786C149.863 51.7377 149.484 51.9547 149.222 52.2847C149.122 52.4448 149.062 52.6274 149.049 52.816C149.037 53.0047 149.071 53.1936 149.149 53.3658C149.361 53.7725 149.606 54.1607 149.884 54.5261C150.236 54.9778 150.452 55.5206 150.506 56.0908C150.501 56.4138 150.414 56.7301 150.252 57.0096C150.09 57.2891 149.859 57.5224 149.581 57.6874C149.087 57.9244 148.553 58.0661 148.006 58.1052C147.579 58.127 147.16 58.2227 146.766 58.3879C146.624 58.4719 146.504 58.589 146.418 58.7293C146.331 58.8696 146.28 59.0288 146.268 59.1933C146.304 59.5966 146.45 59.9823 146.69 60.3084C146.985 60.7303 147.231 61.1842 147.424 61.6614C147.523 61.9433 147.553 62.2449 147.512 62.5409C147.468 62.8374 147.348 63.1175 147.165 63.3544C146.785 63.7701 146.257 64.0201 145.695 64.0505C145.191 64.1038 144.71 64.1013 144.245 64.1748C144.011 64.1994 143.785 64.2766 143.584 64.4008C143.384 64.525 143.214 64.6929 143.087 64.892Z" fill="#127FAF"/>
<path d="M150.851 84.3732C150.875 84.1231 150.964 83.8837 151.108 83.6782C151.262 83.4733 151.453 83.2991 151.671 83.1646C152.099 82.893 152.567 82.7179 152.978 82.4946C153.368 82.3336 153.681 82.0288 153.852 81.6435C153.91 81.4631 153.921 81.2713 153.886 81.0854C153.851 80.8994 153.77 80.7251 153.651 80.578C153.344 80.2371 153.009 79.9225 152.649 79.6378C152.194 79.2881 151.851 78.8148 151.659 78.2747C151.583 77.9607 151.591 77.6327 151.679 77.3222C151.767 77.0117 151.934 76.7292 152.164 76.5019C152.584 76.1513 153.066 75.882 153.585 75.7079C153.992 75.5801 154.374 75.3827 154.714 75.1245C154.829 75.007 154.915 74.8634 154.963 74.7057C155.011 74.5481 155.02 74.3812 154.99 74.2192C154.852 73.8379 154.614 73.501 154.301 73.2441C153.91 72.9086 153.559 72.5295 153.254 72.1143C153.088 71.865 152.985 71.5798 152.952 71.2825C152.922 70.9842 152.969 70.6833 153.088 70.4081C153.353 69.9114 153.803 69.5384 154.34 69.3686C154.814 69.1916 155.281 69.0744 155.712 68.8873C155.933 68.8049 156.133 68.6738 156.296 68.5036C156.46 68.3334 156.583 68.1286 156.656 67.9043C156.632 68.1544 156.543 68.394 156.399 68.5998C156.245 68.8049 156.054 68.9794 155.836 69.1143C155.408 69.3863 154.941 69.5619 154.53 69.7855C154.14 69.9466 153.827 70.2509 153.655 70.6359C153.598 70.816 153.586 71.0075 153.62 71.1934C153.655 71.3793 153.735 71.5538 153.853 71.7012C154.16 72.0424 154.495 72.3572 154.854 72.6422C155.307 72.992 155.652 73.464 155.846 74.0028C155.922 74.3168 155.916 74.6449 155.829 74.9559C155.741 75.2669 155.576 75.5503 155.348 75.7792C154.928 76.1317 154.446 76.402 153.926 76.5759C153.518 76.7032 153.136 76.9002 152.795 77.1583C152.678 77.2749 152.592 77.4181 152.543 77.5756C152.494 77.733 152.484 77.9 152.514 78.0622C152.649 78.4438 152.887 78.781 153.2 79.0372C153.591 79.3725 153.942 79.7509 154.247 80.165C154.414 80.4134 154.518 80.698 154.552 80.9949C154.582 81.2931 154.536 81.5942 154.417 81.8693C154.153 82.3665 153.704 82.74 153.167 82.9094C152.693 83.0862 152.226 83.2036 151.794 83.3905C151.573 83.4726 151.373 83.6037 151.21 83.7738C151.047 83.944 150.924 84.1489 150.851 84.3732Z" fill="#FFC31B"/>
<path d="M101.401 84.6062C101.574 84.7303 101.693 84.915 101.735 85.1233C101.769 85.332 101.772 85.5444 101.746 85.754C101.702 86.1685 101.596 86.5641 101.535 86.9498C101.436 87.2666 101.454 87.6083 101.585 87.913C101.732 88.0882 101.947 88.1072 102.282 87.9637C102.626 87.7979 102.962 87.6142 103.288 87.4135C103.684 87.1492 104.139 86.9863 104.613 86.939C104.776 86.9346 104.938 86.9666 105.088 87.0328C105.237 87.0989 105.37 87.1976 105.477 87.3215C105.586 87.444 105.668 87.5884 105.718 87.745C105.755 87.8817 105.776 88.0227 105.777 88.1646C105.76 88.612 105.68 89.0547 105.54 89.4801C105.423 89.8161 105.349 90.1657 105.32 90.5205C105.319 90.5793 105.325 90.6379 105.336 90.6956C105.361 90.7256 105.357 90.7722 105.391 90.7882C105.431 90.8482 105.489 90.8673 105.589 90.8771C105.918 90.842 106.236 90.7349 106.519 90.5634C106.888 90.3592 107.274 90.1868 107.673 90.048C107.917 89.9632 108.178 89.9393 108.434 89.9783C108.579 90.0043 108.717 90.0623 108.837 90.1483C108.957 90.2342 109.057 90.3458 109.128 90.4749C109.242 90.7095 109.284 90.9729 109.247 91.2312C109.217 91.4459 109.167 91.6574 109.099 91.8633C108.967 92.2576 108.813 92.625 108.699 92.9992C108.616 93.1741 108.581 93.3679 108.597 93.5609C108.613 93.7539 108.68 93.9391 108.792 94.0975C108.619 93.9736 108.499 93.7891 108.457 93.5809C108.423 93.3722 108.419 93.1597 108.445 92.9499C108.489 92.5353 108.594 92.1394 108.654 91.7536C108.753 91.4369 108.736 91.0951 108.604 90.7904C108.458 90.6142 108.244 90.5941 107.91 90.7364C107.566 90.9015 107.23 91.0844 106.904 91.2845C106.508 91.5484 106.054 91.7118 105.581 91.7606C105.418 91.7659 105.256 91.7349 105.106 91.6699C104.956 91.6048 104.823 91.5073 104.715 91.3844C104.605 91.2623 104.521 91.1184 104.47 90.962C104.432 90.8249 104.411 90.6836 104.408 90.5414C104.424 90.0932 104.503 89.6496 104.644 89.2237C104.762 88.8873 104.837 88.5372 104.867 88.1818C104.868 88.1226 104.863 88.0636 104.851 88.0057C104.826 87.9736 104.831 87.9271 104.797 87.911C104.757 87.8503 104.699 87.8319 104.601 87.8199C104.272 87.8544 103.955 87.9612 103.673 88.1324C103.303 88.3364 102.918 88.5091 102.52 88.6487C102.276 88.7339 102.016 88.759 101.761 88.722C101.615 88.6966 101.477 88.6391 101.357 88.5538C101.237 88.4685 101.137 88.3574 101.065 88.2287C100.95 87.9943 100.908 87.7309 100.944 87.4725C100.975 87.2578 101.024 87.0463 101.092 86.8406C101.225 86.4463 101.379 86.0787 101.493 85.7046C101.577 85.5298 101.612 85.336 101.596 85.143C101.58 84.95 101.513 84.7647 101.401 84.6062ZM85.8555 21.1562C85.9452 21.3825 85.9697 21.6293 85.9263 21.8688C85.8752 22.111 85.7793 22.3415 85.6434 22.5485C85.3827 22.9623 85.0508 23.3107 84.785 23.6769C84.5127 23.9742 84.3651 24.3648 84.3726 24.7679C84.4013 24.9435 84.4762 25.1082 84.5895 25.2453C84.7028 25.3824 84.8505 25.4869 85.0175 25.5483C85.4372 25.6906 85.8675 25.7995 86.3043 25.8741C86.8532 25.958 87.367 26.1956 87.7865 26.5593C88.0032 26.795 88.1498 27.0864 88.21 27.4008C88.2702 27.7153 88.2416 28.0402 88.1272 28.3393C87.9017 28.8172 87.592 29.2507 87.213 29.6189C86.9124 29.8998 86.6607 30.2287 86.4683 30.5923C86.4143 30.7331 86.3989 30.8858 86.4237 31.0346C86.4485 31.1833 86.5126 31.3228 86.6094 31.4384C86.9045 31.6918 87.2614 31.8625 87.6439 31.9334C88.1297 32.0371 88.6027 32.1939 89.0543 32.4007C89.3151 32.532 89.5394 32.7256 89.7075 32.9643C89.8749 33.209 89.9714 33.4952 89.9862 33.7914C89.9593 34.3382 89.7176 34.8523 89.3137 35.2218C88.9726 35.5716 88.6154 35.8684 88.3145 36.2087C88.1524 36.3681 88.0301 36.5634 87.9573 36.7788C87.8844 36.9942 87.8632 37.2237 87.8953 37.4488C87.8054 37.2226 87.7806 36.9757 87.8237 36.7361C87.8745 36.4938 87.9702 36.2631 88.1057 36.0559C88.3662 35.6419 88.6977 35.293 88.9633 34.9266C89.2354 34.6293 89.3832 34.2391 89.3763 33.8361C89.3478 33.6607 89.2734 33.496 89.1606 33.3587C89.0478 33.2215 88.9006 33.1165 88.7341 33.0546C88.3149 32.9118 87.8851 32.8023 87.4487 32.7273C86.9002 32.6435 86.3865 32.4067 85.9664 32.0442C85.7489 31.8093 85.601 31.5184 85.5394 31.2042C85.4777 30.8899 85.5047 30.5647 85.6174 30.265C85.8415 29.7856 86.1512 29.3512 86.5311 28.9828C86.8326 28.702 87.0851 28.373 87.2784 28.0092C87.3333 27.8686 87.3497 27.7159 87.3259 27.5668C87.3021 27.4178 87.2391 27.2778 87.1432 27.1612C86.8487 26.9076 86.4921 26.7367 86.11 26.6659C85.6245 26.5622 85.1518 26.4061 84.7 26.2003C84.439 26.0701 84.2143 25.8776 84.0456 25.6397C83.8773 25.3956 83.7803 25.1095 83.7656 24.8134C83.7912 24.2666 84.0325 23.7523 84.4366 23.3832C84.7777 23.0334 85.1347 22.7365 85.436 22.3965C85.5982 22.2371 85.7207 22.0418 85.7936 21.8264C85.8664 21.6109 85.8876 21.3814 85.8555 21.1562Z" fill="#127FAF"/>
<path d="M82.4609 48.1069C82.9119 48.0095 83.3238 47.7806 83.6447 47.4491C83.9655 47.1175 84.1808 46.6983 84.2634 46.2444C84.346 45.7905 84.2922 45.3223 84.1086 44.899C83.9251 44.4757 83.6202 44.1163 83.2325 43.8663C82.8447 43.6163 82.3915 43.4869 81.9302 43.4945C81.4689 43.502 81.0202 43.6462 80.6409 43.9087C80.2615 44.1713 79.9685 44.5405 79.799 44.9695C79.6294 45.3986 79.5909 45.8683 79.6883 46.3193C79.8252 46.9205 80.192 47.4443 80.7102 47.7784C81.2284 48.1125 81.8568 48.2304 82.4609 48.1069Z" fill="#EEB71D"/>
<path d="M126.493 26.5688C126.944 26.4714 127.356 26.2425 127.677 25.911C127.998 25.5794 128.213 25.1602 128.296 24.7063C128.378 24.2524 128.324 23.7842 128.141 23.3609C127.957 22.9376 127.652 22.5782 127.265 22.3282C126.877 22.0782 126.424 21.9488 125.962 21.9564C125.501 21.9639 125.052 22.1081 124.673 22.3707C124.294 22.6332 124.001 23.0024 123.831 23.4315C123.662 23.8605 123.623 24.3303 123.721 24.7812C123.857 25.3824 124.224 25.9062 124.742 26.2403C125.261 26.5744 125.889 26.6923 126.493 26.5688Z" fill="#127FAF"/>
<path d="M131.711 46.7485C132.162 46.6511 132.574 46.4222 132.895 46.0907C133.216 45.7591 133.431 45.3399 133.514 44.886C133.596 44.4321 133.542 43.9639 133.359 43.5406C133.175 43.1173 132.871 42.7579 132.483 42.5079C132.095 42.2579 131.642 42.1285 131.181 42.1361C130.719 42.1436 130.271 42.2878 129.891 42.5503C129.512 42.8129 129.219 43.1821 129.049 43.6112C128.88 44.0402 128.841 44.5099 128.939 44.9609C129.075 45.5621 129.442 46.0859 129.96 46.42C130.479 46.7541 131.107 46.872 131.711 46.7485ZM119.246 78.1359C119.697 78.0385 120.109 77.8096 120.43 77.478C120.751 77.1465 120.966 76.7273 121.049 76.2734C121.131 75.8195 121.077 75.3513 120.894 74.928C120.71 74.5047 120.405 74.1453 120.018 73.8953C119.63 73.6453 119.177 73.5159 118.715 73.5234C118.254 73.531 117.805 73.6752 117.426 73.9377C117.047 74.2003 116.754 74.5695 116.584 74.9985C116.415 75.4276 116.376 75.8973 116.473 76.3483C116.61 76.9495 116.977 77.4732 117.495 77.8074C118.014 78.1415 118.642 78.2594 119.246 78.1359ZM136.082 92.6843C136.533 92.5869 136.945 92.358 137.266 92.0264C137.587 91.6949 137.802 91.2757 137.885 90.8218C137.967 90.3678 137.913 89.8996 137.73 89.4764C137.546 89.0531 137.241 88.6937 136.854 88.4437C136.466 88.1937 136.013 88.0643 135.551 88.0718C135.09 88.0794 134.641 88.2235 134.262 88.4861C133.883 88.7487 133.59 89.1178 133.42 89.5469C133.251 89.976 133.212 90.4457 133.309 90.8967C133.446 91.4979 133.813 92.0216 134.331 92.3557C134.85 92.6899 135.478 92.8078 136.082 92.6843Z" fill="white"/>
<path d="M121.591 103.696C122.042 103.598 122.454 103.369 122.775 103.038C123.095 102.706 123.311 102.287 123.393 101.833C123.476 101.379 123.422 100.911 123.239 100.488C123.055 100.065 122.75 99.7052 122.362 99.4552C121.975 99.2052 121.521 99.0758 121.06 99.0833C120.599 99.0909 120.15 99.235 119.771 99.4976C119.391 99.7602 119.098 100.129 118.929 100.558C118.759 100.987 118.721 101.457 118.818 101.908C118.955 102.509 119.322 103.033 119.84 103.367C120.358 103.701 120.987 103.819 121.591 103.696Z" fill="#FFC31B"/>
<path d="M177.401 83.273C177.852 83.1755 178.264 82.9466 178.585 82.6151C178.906 82.2835 179.121 81.8643 179.204 81.4104C179.286 80.9565 179.233 80.4883 179.049 80.065C178.866 79.6417 178.561 79.2823 178.173 79.0323C177.785 78.7823 177.332 78.6529 176.871 78.6605C176.409 78.668 175.961 78.8122 175.581 79.0748C175.202 79.3373 174.909 79.7065 174.739 80.1356C174.57 80.5646 174.531 81.0344 174.629 81.4853C174.766 82.0865 175.132 82.6103 175.651 82.9444C176.169 83.2785 176.797 83.3964 177.401 83.273Z" fill="#127FAF"/>
<path d="M183.151 47.8374C183.602 47.74 184.014 47.5111 184.334 47.1795C184.655 46.848 184.871 46.4288 184.953 45.9749C185.036 45.5209 184.982 45.0527 184.798 44.6294C184.615 44.2062 184.31 43.8468 183.922 43.5968C183.534 43.3468 183.081 43.2174 182.62 43.2249C182.159 43.2325 181.71 43.3767 181.331 43.6392C180.951 43.9018 180.658 44.2709 180.489 44.7C180.319 45.1291 180.281 45.5988 180.378 46.0498C180.515 46.651 180.882 47.1747 181.4 47.5088C181.918 47.843 182.547 47.9609 183.151 47.8374ZM65.9316 82.1704C66.3826 82.073 66.7945 81.8441 67.1154 81.5125C67.4362 81.181 67.6516 80.7618 67.7341 80.3079C67.8167 79.854 67.7629 79.3858 67.5793 78.9625C67.3958 78.5392 67.0909 78.1798 66.7032 77.9298C66.3154 77.6798 65.8622 77.5504 65.4009 77.5579C64.9396 77.5655 64.4909 77.7097 64.1116 77.9722C63.7322 78.2348 63.4392 78.6039 63.2697 79.033C63.1001 79.4621 63.0616 79.9318 63.159 80.3828C63.2959 80.984 63.6627 81.5077 64.1809 81.8418C64.6991 82.176 65.3275 82.2939 65.9316 82.1704Z" fill="#D6A828"/>
<path d="M72.9379 97.3592C73.3889 97.2618 73.8008 97.0328 74.1217 96.7013C74.4425 96.3697 74.6579 95.9505 74.7404 95.4966C74.823 95.0427 74.7692 94.5745 74.5856 94.1512C74.4021 93.7279 74.0972 93.3685 73.7095 93.1185C73.3217 92.8685 72.8685 92.7391 72.4072 92.7467C71.9459 92.7542 71.4972 92.8984 71.1179 93.161C70.7385 93.4235 70.4455 93.7927 70.276 94.2218C70.1064 94.6509 70.0679 95.1206 70.1653 95.5715C70.3022 96.1728 70.669 96.6965 71.1872 97.0306C71.7054 97.3647 72.3338 97.4827 72.9379 97.3592ZM106.501 40.6584C105.198 42.4793 104.444 44.6357 104.329 46.872C102.508 45.5687 100.352 44.8149 98.1158 44.6999C99.419 42.879 100.173 40.7226 100.288 38.4863C102.109 39.7896 104.265 40.5434 106.501 40.6584ZM66.2645 58.0698C64.9613 59.8907 64.2075 62.0472 64.0925 64.2834C62.2716 62.9802 60.1152 62.2264 57.8789 62.1114C59.1822 60.2905 59.936 58.1341 60.0509 55.8978C61.8718 57.2011 64.0282 57.9549 66.2645 58.0698Z" fill="#127FAF"/>
<path d="M100.307 66.8693C99.0032 68.6902 98.2494 70.8466 98.1345 73.0829C96.3136 71.7796 94.1572 71.0258 91.9209 70.9109C93.2242 69.09 93.978 66.9335 94.0929 64.6973C95.9138 66.0005 98.0702 66.7543 100.307 66.8693Z" fill="#FFC31B"/>
<path d="M147.947 31.7062C146.644 33.5271 145.89 35.6835 145.775 37.9198C143.954 36.6165 141.798 35.8627 139.562 35.7478C140.865 33.9269 141.619 31.7705 141.734 29.5342C143.554 30.8375 145.711 31.5913 147.947 31.7062Z" fill="#EEB71D"/>
<path d="M139.781 69.9894C138.478 71.8103 137.724 73.9667 137.609 76.203C135.788 74.8997 133.632 74.1459 131.396 74.031C132.699 72.2101 133.453 70.0537 133.568 67.8174C135.388 69.1207 137.545 69.8745 139.781 69.9894Z" fill="#127FAF"/>
<path d="M176.283 59.8107C174.98 61.6316 174.226 63.788 174.111 66.0243C172.29 64.721 170.134 63.9672 167.897 63.8523C169.201 62.0314 169.955 59.875 170.069 57.6387C171.89 58.9419 174.047 59.6957 176.283 59.8107Z" fill="#D6A828"/>
<path d="M199.92 61.0627C198.617 62.8836 197.863 65.04 197.748 67.2763C195.927 65.973 193.77 65.2192 191.534 65.1042C192.837 63.2833 193.591 61.1269 193.706 58.8906C195.527 60.1939 197.684 60.9477 199.92 61.0627Z" fill="#127FAF"/>
<path d="M161.321 93.6281C160.018 95.449 159.264 97.6054 159.149 99.8417C157.328 98.5384 155.172 97.7846 152.936 97.6696C154.239 95.8488 154.993 93.6923 155.108 91.4561C156.928 92.7593 159.085 93.5131 161.321 93.6281Z" fill="#FFC31B"/>
<path d="M94.8212 95.2023C93.5179 97.0232 92.7641 99.1796 92.6491 101.416C90.8282 100.113 88.6718 99.3588 86.4355 99.2439C87.7388 97.423 88.4926 95.2666 88.6076 93.0303C90.4285 94.3335 92.5849 95.0873 94.8212 95.2023Z" fill="white"/>
</svg>
